<svg width="39" height="38" viewBox="0 0 39 38" fill="none" xmlns="http://www.w3.org/2000/svg">
<g clip-path="url(#clip0_1_124)">
<path d="M33.2347 22.2506C32.7994 16.5833 30.1608 13.0318 27.833 9.89788C25.6775 6.99652 23.8159 4.49104 23.8159 0.795098C23.8159 0.498223 23.6497 0.226879 23.386 0.0908361C23.1216 -0.0460233 22.8039 -0.0236092 22.5635 0.151102C19.0675 2.65272 16.1505 6.86901 15.1316 10.892C14.4242 13.6928 14.3306 16.8414 14.3175 18.9209C11.089 18.2314 10.3576 13.4021 10.3499 13.3495C10.3135 13.099 10.1605 12.881 9.93783 12.762C9.71287 12.6445 9.44843 12.636 9.22036 12.7488C9.05106 12.8308 5.06485 14.8562 4.83291 22.9432C4.81666 23.2122 4.81592 23.4821 4.81592 23.7518C4.81592 31.6084 11.2088 38.0009 19.0659 38.0009C19.0768 38.0016 19.0883 38.0032 19.0976 38.0009C19.1007 38.0009 19.1038 38.0009 19.1076 38.0009C26.9455 37.9784 33.3159 31.5945 33.3159 23.7518C33.3159 23.3568 33.2347 22.2506 33.2347 22.2506ZM19.0659 36.4176C16.4466 36.4176 14.3159 34.148 14.3159 31.358C14.3159 31.2629 14.3152 31.167 14.3221 31.0496C14.3538 29.873 14.5772 29.0698 14.8223 28.5355C15.2816 29.522 16.1026 30.4288 17.4362 30.4288C17.8738 30.4288 18.2279 30.0747 18.2279 29.6372C18.2279 28.5101 18.2511 27.2098 18.5318 26.0362C18.7815 24.9957 19.3783 23.8886 20.1344 23.0012C20.4707 24.1531 21.1264 25.0853 21.7665 25.9953C22.6827 27.2971 23.6297 28.643 23.796 30.9382C23.806 31.0743 23.8161 31.2111 23.8161 31.358C23.8159 34.1479 21.6852 36.4176 19.0659 36.4176Z" fill="white"/>
</g>
<defs>
<clipPath id="clip0_1_124">
<rect width="38" height="38" fill="white" transform="translate(0.065918 0.00195312)"/>
</clipPath>
</defs>
</svg>
