<svg width="55" height="57" viewBox="0 0 55 57" fill="none" xmlns="http://www.w3.org/2000/svg">
<path d="M34.0634 49.8104V51.4758C34.0634 52.8011 33.09 53.9036 31.8233 54.0912L31.4128 55.6042C31.19 56.4252 30.4511 56.9999 29.5949 56.9999H25.5252C24.669 56.9999 23.9301 56.4252 23.7073 55.6042L23.3085 54.0912C22.0301 53.8918 21.0567 52.8011 21.0567 51.4641V49.7986C21.0567 48.9073 21.7721 48.1919 22.6635 48.1919H32.4566C33.348 48.2036 34.0634 48.919 34.0634 49.8104ZM41.6048 27.3623C41.6048 31.1505 40.1035 34.5869 37.664 37.1085C35.811 39.032 34.6147 41.4832 34.2159 44.0987C34.04 45.2246 33.0665 46.0573 31.9171 46.0573H23.203C22.0653 46.0573 21.0801 45.2363 20.9159 44.1104C20.5054 41.495 19.2974 39.0085 17.4443 37.0968C15.0517 34.6104 13.5622 31.2326 13.5271 27.5147C13.445 19.7037 19.661 13.3821 27.4721 13.3234C35.2714 13.2648 41.6048 19.5746 41.6048 27.3623ZM29.1492 18.8592C29.1492 17.9913 28.4455 17.2759 27.5659 17.2759C21.9832 17.2759 17.4326 21.8148 17.4326 27.4092C17.4326 28.2771 18.1363 28.9925 19.0159 28.9925C19.8838 28.9925 20.5993 28.2888 20.5993 27.4092C20.5993 23.5623 23.7307 20.4425 27.5659 20.4425C28.4455 20.4425 29.1492 19.7388 29.1492 18.8592ZM27.5659 8.71418C28.4338 8.71418 29.1492 8.01047 29.1492 7.13085V1.58333C29.1492 0.71543 28.4455 0 27.5659 0C26.6863 0 25.9826 0.703702 25.9826 1.58333V7.13085C25.9826 8.01047 26.698 8.71418 27.5659 8.71418ZM8.92954 27.3505C8.92954 26.4826 8.22584 25.7672 7.34621 25.7672H1.79869C0.930793 25.7672 0.215363 26.4709 0.215363 27.3505C0.215363 28.2184 0.919064 28.9339 1.79869 28.9339H7.34621C8.22584 28.9339 8.92954 28.2302 8.92954 27.3505ZM53.3331 25.7672H47.7856C46.9177 25.7672 46.2023 26.4709 46.2023 27.3505C46.2023 28.2184 46.906 28.9339 47.7856 28.9339H53.3331C54.201 28.9339 54.9165 28.2302 54.9165 27.3505C54.9165 26.4826 54.2128 25.7672 53.3331 25.7672ZM12.1548 40.5332L8.22584 44.4622C7.60423 45.0838 7.60423 46.0807 8.22584 46.7024C8.53077 47.0073 8.94127 47.1598 9.34003 47.1598C9.7388 47.1598 10.1493 47.0073 10.4542 46.7024L14.3832 42.7733C15.0048 42.1517 15.0048 41.1548 14.3832 40.5332C13.7734 39.9116 12.7647 39.9116 12.1548 40.5332ZM41.8628 14.637C42.2616 14.637 42.672 14.4845 42.977 14.1796L46.906 10.2506C47.5276 9.62899 47.5276 8.63208 46.906 8.01047C46.2844 7.38887 45.2875 7.38887 44.6659 8.01047L40.7369 11.9395C40.1153 12.5611 40.1153 13.558 40.7369 14.1796C41.0535 14.4845 41.4523 14.637 41.8628 14.637ZM12.1548 14.1679C12.4598 14.4728 12.8703 14.6253 13.269 14.6253C13.6678 14.6253 14.0783 14.4728 14.3832 14.1679C15.0048 13.5463 15.0048 12.5493 14.3832 11.9277L10.4542 7.99874C9.83262 7.37714 8.83571 7.37714 8.21411 7.99874C7.5925 8.62035 7.5925 9.61726 8.21411 10.2389L12.1548 14.1679ZM42.977 40.5332C42.3554 39.9116 41.3585 39.9116 40.7369 40.5332C40.1153 41.1548 40.1153 42.1517 40.7369 42.7733L44.6659 46.7024C44.9708 47.0073 45.3813 47.1598 45.7801 47.1598C46.1788 47.1598 46.5893 47.0073 46.8943 46.7024C47.5159 46.0807 47.5159 45.0838 46.8943 44.4622L42.977 40.5332Z" fill="#1F37FF"/>
</svg>
