<svg width="47" height="57" viewBox="0 0 47 57" fill="none" xmlns="http://www.w3.org/2000/svg">
<path d="M17.125 10.5406C18.0463 10.5406 18.7933 9.79364 18.7933 8.87232V1.72488C18.7051 -0.488554 15.5441 -0.486886 15.4568 1.72488V8.87244C15.4568 9.79375 16.2037 10.5406 17.125 10.5406Z" fill="#1F37FF"/>
<path d="M8.79797 10.0529C9.44926 10.7043 10.5057 10.7045 11.1572 10.0529C11.8087 9.40135 11.8087 8.34513 11.1572 7.69362L9.37041 5.90681C8.71901 5.25531 7.66267 5.25531 7.01117 5.90681C6.35966 6.55832 6.35966 7.61454 7.01117 8.26605L8.79797 10.0529Z" fill="#1F37FF"/>
<path d="M25.4522 10.0529L27.239 8.26605C27.8906 7.61454 27.8906 6.55832 27.239 5.90681C26.5876 5.25531 25.5313 5.25531 24.8798 5.90681L23.093 7.69362C22.4415 8.34513 22.4415 9.40135 23.093 10.0529C23.7443 10.7043 24.8007 10.7045 25.4522 10.0529Z" fill="#1F37FF"/>
<path d="M37.2643 25.5382C38.217 24.5856 38.2183 23.0422 37.2643 22.0884C36.3115 21.1356 34.7684 21.1345 33.8144 22.0884L28.0052 27.8975C27.0541 28.8487 27.0541 30.3964 28.0052 31.3475C28.9567 32.2982 30.5045 32.2983 31.4553 31.3475L37.264 25.5387C37.2641 25.5384 37.2642 25.5383 37.2643 25.5382Z" fill="#1F37FF"/>
<path d="M37.2642 37.1563L41.6212 32.7993H41.6213C42.574 31.8466 42.5753 30.3032 41.6213 29.3493C40.6687 28.3966 39.1254 28.3952 38.1715 29.3493L33.8142 33.7065C32.8633 34.6574 32.8636 36.2051 33.8146 37.1567C34.767 38.109 36.3103 38.1101 37.2642 37.1563Z" fill="#1F37FF"/>
<path d="M45.9783 36.6112C45.0342 35.6671 43.4902 35.6489 42.5286 36.6104L39.6242 39.5149C38.6701 40.4692 38.6715 42.0124 39.6237 42.9645C40.5879 43.9301 42.1345 43.9048 43.0728 42.9653L45.9776 40.0605L45.9785 40.0596C46.9182 39.121 46.9425 37.5741 45.9783 36.6112Z" fill="#1F37FF"/>
<path d="M35.5731 41.2402C35.5731 41.2289 35.5739 41.2178 35.5739 41.2066C34.02 41.2182 32.5535 40.614 31.4551 39.5158C30.32 38.38 29.7579 36.8856 29.7674 35.3943C28.2743 35.4056 26.7822 34.841 25.6462 33.7069C23.3939 31.4546 23.3939 27.7902 25.6459 25.5382L41.6214 9.56368C42.5321 8.6517 42.6083 7.09934 41.6278 6.11886C40.8116 5.30275 39.2629 5.02226 38.1716 6.11374L17.5675 26.7177L17.8399 26.9902C22.4942 31.6445 22.4942 39.2176 17.8399 43.8719C17.1884 44.5235 16.132 44.5233 15.4807 43.8719C14.8292 43.2205 14.8292 42.1642 15.4807 41.5127C18.834 38.1593 18.834 32.7029 15.4807 29.3494C15.4807 29.3494 14.028 27.896 14.0279 27.8955C13.8112 27.6784 13.6542 27.4026 13.5828 27.0932L11.6738 18.8211C11.086 16.2737 8.38931 14.7971 5.91608 15.7047C5.25845 15.9461 4.82182 16.5729 4.82249 17.2733L4.84529 40.8765L0.554548 45.1653C-0.0969588 45.8169 -0.0969588 46.8731 0.554548 47.5246L9.54085 56.5109C9.8537 56.8237 10.278 56.9995 10.7205 56.9995H27.1788C28.3781 56.9995 29.5062 56.5318 30.3554 55.6828L39.3695 46.669C38.5868 46.3843 37.8694 45.9297 37.2636 45.323C36.1737 44.2332 35.5731 42.783 35.5731 41.2402Z" fill="#1F37FF"/>
</svg>
