<svg width="58" height="50" viewBox="0 0 58 50" fill="none" xmlns="http://www.w3.org/2000/svg">
<path d="M30.2358 1.82422C30.2358 0.901848 29.4883 0.154297 28.5659 0.154297C27.6435 0.154297 26.896 0.901848 26.896 1.82422V8.97879C26.896 9.90116 27.6435 10.6487 28.5659 10.6487C29.4883 10.6487 30.2358 9.90116 30.2358 8.97879V1.82422Z" fill="#1F37FF"/>
<path d="M20.2307 11.9493C20.5564 12.2751 20.9839 12.4386 21.4113 12.4386C21.8384 12.4386 22.2659 12.2755 22.592 11.9493C23.2439 11.297 23.2439 10.2398 22.592 9.58753L19.0143 6.01025C18.3624 5.35793 17.3052 5.35793 16.6529 6.01025C16.0006 6.66256 16.0006 7.71974 16.6529 8.37205L20.2307 11.9493Z" fill="#1F37FF"/>
<path d="M35.7204 12.4381C36.1479 12.4381 36.5754 12.2751 36.9011 11.9489L40.4788 8.37162C41.1307 7.71974 41.1307 6.66212 40.4788 6.01025C39.8265 5.35793 38.7693 5.35793 38.117 6.01025L34.5397 9.58753C33.8874 10.2398 33.8874 11.297 34.5397 11.9489C34.8659 12.2751 35.2934 12.4381 35.7204 12.4381Z" fill="#1F37FF"/>
<path d="M23.7349 16.2877C23.7175 16.3021 23.701 16.316 23.6853 16.329L16.4655 22.5182C15.7967 23.0914 14.9417 23.4075 14.0598 23.4075H8.88867C4.01589 23.4075 0.065918 27.3505 0.065918 32.2303V48.3307C0.065918 49.2526 0.813469 50.0006 1.73584 50.0006H16.045C16.9678 50.0006 17.7149 49.2522 17.7149 48.3307V33.0004L26.2124 25.7167C26.6464 25.3449 26.896 24.8017 26.896 24.2303V17.8189C26.896 16.1881 25.0017 15.2606 23.7349 16.2877Z" fill="#1F37FF"/>
<path d="M48.2432 23.4075H43.0721C42.1902 23.4075 41.3352 23.0914 40.6664 22.5178L33.4466 16.329C33.4309 16.316 33.4144 16.3021 33.397 16.2877C32.1302 15.2606 30.2359 16.1881 30.2359 17.8189V24.2303C30.2359 24.8017 30.4855 25.3449 30.9195 25.7167L39.417 33.0004V48.3302C39.417 49.2522 40.1641 50.0001 41.0869 50.0001H55.396C56.3184 50.0001 57.0659 49.2526 57.0659 48.3302V32.2303C57.0659 27.3505 53.116 23.4075 48.2432 23.4075Z" fill="#1F37FF"/>
<path d="M15.9263 16.3706C15.9263 12.4911 12.77 9.33473 8.89046 9.33473C5.01094 9.33473 1.85461 12.4911 1.85461 16.3706C1.85461 20.2505 5.01094 23.4069 8.89046 23.4069C12.77 23.4069 15.9263 20.2505 15.9263 16.3706Z" fill="#1F37FF"/>
<path d="M55.2772 16.3706C55.2772 12.4911 52.1209 9.33473 48.2414 9.33473C44.3619 9.33473 41.2055 12.4911 41.2055 16.3706C41.2055 20.2505 44.3619 23.4069 48.2414 23.4069C52.1209 23.4069 55.2772 20.2505 55.2772 16.3706Z" fill="#1F37FF"/>
</svg>
