<svg width="48" height="37" viewBox="0 0 48 37" fill="none" xmlns="http://www.w3.org/2000/svg">
<path d="M22.006 27.4236C20.4649 25.7017 19.6161 23.4798 19.6161 21.1674C19.6161 15.9934 23.8254 11.7841 28.9994 11.7841C31.1698 11.7841 33.2312 12.5341 34.8701 13.8485C36.5089 12.5341 38.5704 11.7841 40.7408 11.7841C40.9019 11.7841 41.062 11.7882 41.2211 11.7962C41.094 5.62438 36.0345 0.642578 29.8328 0.642578C26.3643 0.642578 23.1249 2.22072 20.9828 4.86305C18.8409 2.22072 15.6014 0.642578 12.1329 0.642578C5.85155 0.642578 0.741455 5.75276 0.741455 12.034C0.741455 14.8414 1.77166 17.5385 3.64236 19.6286C5.50897 21.7141 20.9826 36.3686 20.9826 36.3686C20.9826 36.3686 23.7141 33.8732 26.148 31.5381C24.2178 29.666 22.5091 27.9857 22.006 27.4236Z" fill="white"/>
<path d="M34.8699 36.1304C34.8701 36.1301 44.4795 26.9617 45.6972 25.6013C46.7502 24.4248 47.3905 22.8712 47.3905 21.168C47.3905 17.4953 44.4133 14.5181 40.7406 14.5181C38.2275 14.5181 36.0412 15.9127 34.9104 17.9696H34.8295C33.6987 15.9127 31.5123 14.5181 28.9993 14.5181C25.3265 14.5181 22.3493 17.4953 22.3493 21.168C22.3493 22.8712 22.9895 24.4248 24.0426 25.6013C25.2602 26.9617 34.8696 36.1302 34.8699 36.1304Z" fill="white"/>
</svg>
