<svg width="20" height="14" viewBox="0 0 20 14" fill="none" xmlns="http://www.w3.org/2000/svg">
<path d="M10.1084 13.5023C10.1068 13.5023 10.1051 13.5023 10.1034 13.5023C9.5395 13.4984 4.55458 13.4529 3.14225 13.071C2.15522 12.8057 1.37606 12.0274 1.11002 11.0402C0.740466 9.6528 0.763991 6.9817 0.766557 6.76841C0.764133 6.55612 0.740324 3.86291 1.10887 2.46413C1.1093 2.46285 1.10959 2.46142 1.11002 2.46014C1.37306 1.48423 2.16976 0.681827 3.13983 0.415786C3.14225 0.415073 3.14482 0.414502 3.14724 0.41379C4.5436 0.0468068 9.53836 0.00189635 10.1034 -0.00195312H10.1135C10.6788 0.00189635 15.677 0.0473771 17.0763 0.4299C18.0608 0.694516 18.8394 1.47182 19.1061 2.45772C19.4895 3.8575 19.454 6.55654 19.4502 6.78438C19.4529 7.00879 19.4753 9.65594 19.1079 11.0503C19.1076 11.0517 19.1071 11.053 19.1069 11.0543C18.8407 12.0415 18.0617 12.8198 17.0735 13.0854C17.0722 13.0858 17.0708 13.0861 17.0695 13.0865C15.6733 13.4534 10.6784 13.4983 10.1135 13.5023C10.1118 13.5023 10.1101 13.5023 10.1084 13.5023ZM2.52006 2.83853C2.19557 4.07321 2.22622 6.73205 2.2265 6.75886V6.7781C2.21681 7.51549 2.25088 9.65095 2.5202 10.6624C2.6508 11.1467 3.03503 11.5303 3.52235 11.6614C4.56441 11.9432 8.62446 12.0319 10.1084 12.0423C11.5961 12.0319 15.6621 11.9457 16.6965 11.6751C17.1823 11.5436 17.5652 11.1612 17.6967 10.6763C17.9663 9.65009 18.0001 7.52504 17.9902 6.79236C17.9902 6.78466 17.9902 6.77696 17.9904 6.76926C18.0038 6.02304 17.9774 3.86263 17.6979 2.84309C17.6977 2.84209 17.6974 2.84109 17.6972 2.8401C17.5661 2.35364 17.1817 1.96997 16.6944 1.83895C15.6624 1.5568 11.5958 1.4684 10.1084 1.45799C8.62161 1.4684 4.55957 1.55452 3.52206 1.82483C3.04402 1.95743 2.65109 2.35478 2.52006 2.83853ZM18.402 10.8644H18.4024H18.402ZM8.24764 9.70641V3.79377L13.3575 6.75016L8.24764 9.70641Z" fill="white"/>
</svg>
